<?xml version="1.0" standalone="no"?><svg xmlns="http://www.w3.org/2000/svg" viewBox="0 0 1440 320"><path fill="#f3f4f5" fill-opacity="0.05" d="M0,224L0,192L120,192L120,32L240,32L240,192L360,192L360,64L480,64L480,32L600,32L600,160L720,160L720,256L840,256L840,96L960,96L960,128L1080,128L1080,288L1200,288L1200,224L1320,224L1320,32L1440,32L1440,320L1320,320L1320,320L1200,320L1200,320L1080,320L1080,320L960,320L960,320L840,320L840,320L720,320L720,320L600,320L600,320L480,320L480,320L360,320L360,320L240,320L240,320L120,320L120,320L0,320L0,320Z"></path></svg>